<svg id="eBKthR6DsVL1" xmlns="http://www.w3.org/2000/svg" xmlns:xlink="http://www.w3.org/1999/xlink" viewBox="0 0 24 24" shape-rendering="geometricPrecision" text-rendering="geometricPrecision"><path d="M23,1c0,0-6.528128-.458293-9,2-.023278.036857-4,4-4,4L5,8L2,10l8,4l4,8l2-3l1-5c0,0,3.963143-3.976721,4-4c2.458293-2.471872,2-9,2-9ZM17,8c-.5525,0-1-.4475-1-1s.4475-1,1-1s1,.4475,1,1-.4475,1-1,1ZM7,17c-1-1-3-1-4,0s-1,5-1,5s4,0,5-1s1-3,0-4Z" fill="none" stroke="#9114f3" stroke-width="2"/><path d="" fill="none" stroke="#3f5787" stroke-width="0.5"/></svg>
