<svg width="41" height="48" viewBox="0 0 41 48" fill="none" xmlns="http://www.w3.org/2000/svg">
<path d="M15.8477 21.5673L16.0477 26.7368L20.4477 29.0682L24.7477 26.4327L24.6477 21.2632L20.1477 18.8304L15.8477 21.5673Z" stroke="#27FB6B" stroke-width="0.6" stroke-miterlimit="10"/>
<path d="M16.0477 20.1482L14.8477 25.7232L19.1477 29.6764L24.5477 27.8519L25.7477 22.1755L21.4477 18.3237L16.0477 20.1482Z" stroke="#27FB6B" stroke-width="0.6" stroke-miterlimit="10"/>
<path d="M16.7473 18.6277L13.9473 24.4055L17.4473 29.7777L23.8473 29.3723L26.7473 23.4932L23.1473 18.1209L16.7473 18.6277Z" stroke="#27FB6B" stroke-width="0.6" stroke-miterlimit="10"/>
<path d="M17.848 17.1073L13.248 22.6823L15.648 29.575L22.748 30.7914L27.448 25.2164L24.948 18.425L17.848 17.1073Z" stroke="#27FB6B" stroke-width="0.6" stroke-miterlimit="10"/>
<path d="M19.4473 15.7896L12.9473 20.655L13.7473 28.7641L21.1473 32.1091L27.7473 27.345L26.8473 19.1345L19.4473 15.7896Z" stroke="#27FB6B" stroke-width="0.6" stroke-miterlimit="10"/>
<path d="M21.5477 14.8773L13.1477 18.3237L11.8477 27.4464L19.0477 33.1228L27.4477 29.6764L28.7477 20.5537L21.5477 14.8773Z" stroke="#27FB6B" stroke-width="0.6" stroke-miterlimit="10"/>
<path d="M24.1475 14.3705L14.0475 15.7896L10.1475 25.4191L16.4475 33.5282L26.5475 32.1091L30.4475 22.5809L24.1475 14.3705Z" stroke="#27FB6B" stroke-width="0.6" stroke-miterlimit="10"/>
<path d="M27.0477 14.5732L15.6477 13.3569L8.84766 22.7837L13.5477 33.4269L24.9477 34.6432L31.7477 25.2164L27.0477 14.5732Z" stroke="#27FB6B" stroke-width="0.6" stroke-miterlimit="10"/>
<path d="M30.1475 15.5868L18.0475 11.1268L8.14746 19.54L10.4475 32.4132L22.5475 36.8732L32.4475 28.46L30.1475 15.5868Z" stroke="#27FB6B" stroke-width="0.6" stroke-miterlimit="10"/>
<path d="M33.348 17.5128L21.348 9.30231L8.24805 15.7896L7.24805 30.3859L19.248 38.5964L32.348 32.2105L33.348 17.5128Z" stroke="#27FB6B" stroke-width="0.6" stroke-miterlimit="10"/>
<path d="M36.2477 20.5536L25.3477 8.28864L9.44766 11.735L4.34766 27.4464L15.2477 39.7114L31.2477 36.265L36.2477 20.5536Z" stroke="#27FB6B" stroke-width="0.6" stroke-miterlimit="10"/>
<path d="M38.5479 24.6082L30.0479 8.28865L11.7479 7.5791L2.04785 23.2905L10.6479 39.7114L28.8479 40.3196L38.5479 24.6082Z" stroke="#27FB6B" stroke-width="0.6" stroke-miterlimit="10"/>
<path d="M40.0479 29.6764L35.0479 9.50502L15.3479 3.72729L0.547852 18.2223L5.54785 38.495L25.2479 44.1714L40.0479 29.6764Z" stroke="#27FB6B" stroke-width="0.6" stroke-miterlimit="10"/>
<path d="M40.3477 35.6568V12.2418L20.3477 0.585022L0.347656 12.2418V35.6568L20.3477 47.415L40.3477 35.6568Z" stroke="#27FB6B" stroke-width="0.6" stroke-miterlimit="10"/>
</svg>
