<svg xmlns="http://www.w3.org/2000/svg" version="1.1" xmlns:xlink="http://www.w3.org/1999/xlink" xmlns:svgjs="http://svgjs.dev/svgjs" width="1440" height="560" preserveAspectRatio="none" viewBox="0 0 1440 560"><g mask="url(&quot;#SvgjsMask1003&quot;)" fill="none"><rect width="1440" height="560" x="0" y="0" fill="rgba(25, 26, 32, 1)"></rect><path d="M0,511.351C98.666,517.293,199.091,492.562,280.863,437.031C361.576,382.218,406.745,292.953,450.217,205.607C495.049,115.529,549.739,22.603,536.785,-77.178C523.775,-177.39,444.806,-251.763,380.695,-329.875C314.844,-410.107,255.821,-503.466,158.127,-538.531C58.31,-574.359,-51.264,-551.014,-153.12,-521.478C-255.245,-491.864,-368.016,-458.265,-426.015,-369.144C-482.683,-282.068,-443.903,-168.443,-450.354,-64.751C-456.186,28.984,-497.428,124.016,-462.111,211.039C-426.313,299.247,-339.752,352.589,-259.932,404.462C-179.755,456.567,-95.447,505.603,0,511.351" fill="#16171d"></path><path d="M1440 1111.306C1543.321 1109.268 1653.768 1076.6570000000002 1722.363 999.365 1787.399 926.0840000000001 1763.783 813.898 1788.165 719.002 1807.3600000000001 644.293 1860.205 577.504 1850.411 500.992 1840.562 424.048 1786.4560000000001 362.43100000000004 1735.083 304.30899999999997 1684.142 246.676 1628.834 189.887 1555.347 167.166 1481.346 144.286 1402.893 158.81599999999997 1327.961 178.43200000000002 1251.154 198.539 1175.035 225.66000000000003 1118.597 281.502 1059.621 339.85400000000004 1015.116 415.122 1005.46 497.523 995.9159999999999 578.966 1043.654 651.914 1065.942 730.827 1092.971 826.525 1080.674 939.732 1150.3890000000001 1010.644 1223.52 1085.031 1335.705 1113.363 1440 1111.306" fill="#1c1d24"></path></g><defs><mask id="SvgjsMask1003"><rect width="1440" height="560" fill="#ffffff"></rect></mask></defs></svg>